<mxfile host="app.diagrams.net" modified="2021-07-13T01:36:48.170Z" agent="5.0 (X11; Linux x86_64) AppleWebKit/537.36 (KHTML, like Gecko) Chrome/91.0.4472.114 Safari/537.36" etag="2uoXlnmjGbQ81z5bqUy5" version="14.8.6" type="github">
  <diagram id="7ADZEoCv_N2pfUkhOmF2" name="Page-1">
    <mxGraphModel dx="1138" dy="609" grid="1" gridSize="10" guides="1" tooltips="1" connect="1" arrows="1" fold="1" page="1" pageScale="1" pageWidth="1200" pageHeight="1920" math="0" shadow="0">
      <root>
        <mxCell id="0" />
        <mxCell id="1" parent="0" />
        <mxCell id="YdeQiZSEQgxUe7LMEF5x-2" value="库房库存" style="shape=table;startSize=30;container=1;collapsible=1;childLayout=tableLayout;fixedRows=1;rowLines=0;fontStyle=1;align=center;resizeLast=1;" vertex="1" parent="1">
          <mxGeometry x="80" y="120" width="180" height="160" as="geometry" />
        </mxCell>
        <mxCell id="YdeQiZSEQgxUe7LMEF5x-3" value="" style="shape=partialRectangle;collapsible=0;dropTarget=0;pointerEvents=0;fillColor=none;top=0;left=0;bottom=1;right=0;points=[[0,0.5],[1,0.5]];portConstraint=eastwest;" vertex="1" parent="YdeQiZSEQgxUe7LMEF5x-2">
          <mxGeometry y="30" width="180" height="30" as="geometry" />
        </mxCell>
        <mxCell id="YdeQiZSEQgxUe7LMEF5x-4" value="PK" style="shape=partialRectangle;connectable=0;fillColor=none;top=0;left=0;bottom=0;right=0;fontStyle=1;overflow=hidden;" vertex="1" parent="YdeQiZSEQgxUe7LMEF5x-3">
          <mxGeometry width="30" height="30" as="geometry" />
        </mxCell>
        <mxCell id="YdeQiZSEQgxUe7LMEF5x-5" value="库存ID" style="shape=partialRectangle;connectable=0;fillColor=none;top=0;left=0;bottom=0;right=0;align=left;spacingLeft=6;fontStyle=5;overflow=hidden;" vertex="1" parent="YdeQiZSEQgxUe7LMEF5x-3">
          <mxGeometry x="30" width="150" height="30" as="geometry" />
        </mxCell>
        <mxCell id="YdeQiZSEQgxUe7LMEF5x-6" value="" style="shape=partialRectangle;collapsible=0;dropTarget=0;pointerEvents=0;fillColor=none;top=0;left=0;bottom=0;right=0;points=[[0,0.5],[1,0.5]];portConstraint=eastwest;" vertex="1" parent="YdeQiZSEQgxUe7LMEF5x-2">
          <mxGeometry y="60" width="180" height="30" as="geometry" />
        </mxCell>
        <mxCell id="YdeQiZSEQgxUe7LMEF5x-7" value="" style="shape=partialRectangle;connectable=0;fillColor=none;top=0;left=0;bottom=0;right=0;editable=1;overflow=hidden;" vertex="1" parent="YdeQiZSEQgxUe7LMEF5x-6">
          <mxGeometry width="30" height="30" as="geometry" />
        </mxCell>
        <mxCell id="YdeQiZSEQgxUe7LMEF5x-8" value="Row 1" style="shape=partialRectangle;connectable=0;fillColor=none;top=0;left=0;bottom=0;right=0;align=left;spacingLeft=6;overflow=hidden;" vertex="1" parent="YdeQiZSEQgxUe7LMEF5x-6">
          <mxGeometry x="30" width="150" height="30" as="geometry" />
        </mxCell>
        <mxCell id="YdeQiZSEQgxUe7LMEF5x-9" value="" style="shape=partialRectangle;collapsible=0;dropTarget=0;pointerEvents=0;fillColor=none;top=0;left=0;bottom=0;right=0;points=[[0,0.5],[1,0.5]];portConstraint=eastwest;" vertex="1" parent="YdeQiZSEQgxUe7LMEF5x-2">
          <mxGeometry y="90" width="180" height="30" as="geometry" />
        </mxCell>
        <mxCell id="YdeQiZSEQgxUe7LMEF5x-10" value="" style="shape=partialRectangle;connectable=0;fillColor=none;top=0;left=0;bottom=0;right=0;editable=1;overflow=hidden;" vertex="1" parent="YdeQiZSEQgxUe7LMEF5x-9">
          <mxGeometry width="30" height="30" as="geometry" />
        </mxCell>
        <mxCell id="YdeQiZSEQgxUe7LMEF5x-11" value="Row 2" style="shape=partialRectangle;connectable=0;fillColor=none;top=0;left=0;bottom=0;right=0;align=left;spacingLeft=6;overflow=hidden;" vertex="1" parent="YdeQiZSEQgxUe7LMEF5x-9">
          <mxGeometry x="30" width="150" height="30" as="geometry" />
        </mxCell>
        <mxCell id="YdeQiZSEQgxUe7LMEF5x-12" value="" style="shape=partialRectangle;collapsible=0;dropTarget=0;pointerEvents=0;fillColor=none;top=0;left=0;bottom=0;right=0;points=[[0,0.5],[1,0.5]];portConstraint=eastwest;" vertex="1" parent="YdeQiZSEQgxUe7LMEF5x-2">
          <mxGeometry y="120" width="180" height="30" as="geometry" />
        </mxCell>
        <mxCell id="YdeQiZSEQgxUe7LMEF5x-13" value="" style="shape=partialRectangle;connectable=0;fillColor=none;top=0;left=0;bottom=0;right=0;editable=1;overflow=hidden;" vertex="1" parent="YdeQiZSEQgxUe7LMEF5x-12">
          <mxGeometry width="30" height="30" as="geometry" />
        </mxCell>
        <mxCell id="YdeQiZSEQgxUe7LMEF5x-14" value="Row 3" style="shape=partialRectangle;connectable=0;fillColor=none;top=0;left=0;bottom=0;right=0;align=left;spacingLeft=6;overflow=hidden;" vertex="1" parent="YdeQiZSEQgxUe7LMEF5x-12">
          <mxGeometry x="30" width="150" height="30" as="geometry" />
        </mxCell>
        <mxCell id="YdeQiZSEQgxUe7LMEF5x-15" value="库房出库单" style="shape=table;startSize=30;container=1;collapsible=1;childLayout=tableLayout;fixedRows=1;rowLines=0;fontStyle=1;align=center;resizeLast=1;" vertex="1" parent="1">
          <mxGeometry x="400" y="120" width="180" height="160" as="geometry" />
        </mxCell>
        <mxCell id="YdeQiZSEQgxUe7LMEF5x-16" value="" style="shape=partialRectangle;collapsible=0;dropTarget=0;pointerEvents=0;fillColor=none;top=0;left=0;bottom=1;right=0;points=[[0,0.5],[1,0.5]];portConstraint=eastwest;" vertex="1" parent="YdeQiZSEQgxUe7LMEF5x-15">
          <mxGeometry y="30" width="180" height="30" as="geometry" />
        </mxCell>
        <mxCell id="YdeQiZSEQgxUe7LMEF5x-17" value="PK" style="shape=partialRectangle;connectable=0;fillColor=none;top=0;left=0;bottom=0;right=0;fontStyle=1;overflow=hidden;" vertex="1" parent="YdeQiZSEQgxUe7LMEF5x-16">
          <mxGeometry width="30" height="30" as="geometry" />
        </mxCell>
        <mxCell id="YdeQiZSEQgxUe7LMEF5x-18" value="库房出库单ID" style="shape=partialRectangle;connectable=0;fillColor=none;top=0;left=0;bottom=0;right=0;align=left;spacingLeft=6;fontStyle=5;overflow=hidden;" vertex="1" parent="YdeQiZSEQgxUe7LMEF5x-16">
          <mxGeometry x="30" width="150" height="30" as="geometry" />
        </mxCell>
        <mxCell id="YdeQiZSEQgxUe7LMEF5x-19" value="" style="shape=partialRectangle;collapsible=0;dropTarget=0;pointerEvents=0;fillColor=none;top=0;left=0;bottom=0;right=0;points=[[0,0.5],[1,0.5]];portConstraint=eastwest;" vertex="1" parent="YdeQiZSEQgxUe7LMEF5x-15">
          <mxGeometry y="60" width="180" height="30" as="geometry" />
        </mxCell>
        <mxCell id="YdeQiZSEQgxUe7LMEF5x-20" value="" style="shape=partialRectangle;connectable=0;fillColor=none;top=0;left=0;bottom=0;right=0;editable=1;overflow=hidden;" vertex="1" parent="YdeQiZSEQgxUe7LMEF5x-19">
          <mxGeometry width="30" height="30" as="geometry" />
        </mxCell>
        <mxCell id="YdeQiZSEQgxUe7LMEF5x-21" value="关联ID" style="shape=partialRectangle;connectable=0;fillColor=none;top=0;left=0;bottom=0;right=0;align=left;spacingLeft=6;overflow=hidden;" vertex="1" parent="YdeQiZSEQgxUe7LMEF5x-19">
          <mxGeometry x="30" width="150" height="30" as="geometry" />
        </mxCell>
        <mxCell id="YdeQiZSEQgxUe7LMEF5x-22" value="" style="shape=partialRectangle;collapsible=0;dropTarget=0;pointerEvents=0;fillColor=none;top=0;left=0;bottom=0;right=0;points=[[0,0.5],[1,0.5]];portConstraint=eastwest;" vertex="1" parent="YdeQiZSEQgxUe7LMEF5x-15">
          <mxGeometry y="90" width="180" height="30" as="geometry" />
        </mxCell>
        <mxCell id="YdeQiZSEQgxUe7LMEF5x-23" value="" style="shape=partialRectangle;connectable=0;fillColor=none;top=0;left=0;bottom=0;right=0;editable=1;overflow=hidden;" vertex="1" parent="YdeQiZSEQgxUe7LMEF5x-22">
          <mxGeometry width="30" height="30" as="geometry" />
        </mxCell>
        <mxCell id="YdeQiZSEQgxUe7LMEF5x-24" value="Row 2" style="shape=partialRectangle;connectable=0;fillColor=none;top=0;left=0;bottom=0;right=0;align=left;spacingLeft=6;overflow=hidden;" vertex="1" parent="YdeQiZSEQgxUe7LMEF5x-22">
          <mxGeometry x="30" width="150" height="30" as="geometry" />
        </mxCell>
        <mxCell id="YdeQiZSEQgxUe7LMEF5x-25" value="" style="shape=partialRectangle;collapsible=0;dropTarget=0;pointerEvents=0;fillColor=none;top=0;left=0;bottom=0;right=0;points=[[0,0.5],[1,0.5]];portConstraint=eastwest;" vertex="1" parent="YdeQiZSEQgxUe7LMEF5x-15">
          <mxGeometry y="120" width="180" height="30" as="geometry" />
        </mxCell>
        <mxCell id="YdeQiZSEQgxUe7LMEF5x-26" value="" style="shape=partialRectangle;connectable=0;fillColor=none;top=0;left=0;bottom=0;right=0;editable=1;overflow=hidden;" vertex="1" parent="YdeQiZSEQgxUe7LMEF5x-25">
          <mxGeometry width="30" height="30" as="geometry" />
        </mxCell>
        <mxCell id="YdeQiZSEQgxUe7LMEF5x-27" value="Row 3" style="shape=partialRectangle;connectable=0;fillColor=none;top=0;left=0;bottom=0;right=0;align=left;spacingLeft=6;overflow=hidden;" vertex="1" parent="YdeQiZSEQgxUe7LMEF5x-25">
          <mxGeometry x="30" width="150" height="30" as="geometry" />
        </mxCell>
        <mxCell id="YdeQiZSEQgxUe7LMEF5x-28" value="库房出库明细" style="shape=table;startSize=30;container=1;collapsible=1;childLayout=tableLayout;fixedRows=1;rowLines=0;fontStyle=1;align=center;resizeLast=1;" vertex="1" parent="1">
          <mxGeometry x="720" y="120" width="180" height="160" as="geometry" />
        </mxCell>
        <mxCell id="YdeQiZSEQgxUe7LMEF5x-29" value="" style="shape=partialRectangle;collapsible=0;dropTarget=0;pointerEvents=0;fillColor=none;top=0;left=0;bottom=1;right=0;points=[[0,0.5],[1,0.5]];portConstraint=eastwest;" vertex="1" parent="YdeQiZSEQgxUe7LMEF5x-28">
          <mxGeometry y="30" width="180" height="30" as="geometry" />
        </mxCell>
        <mxCell id="YdeQiZSEQgxUe7LMEF5x-30" value="PK" style="shape=partialRectangle;connectable=0;fillColor=none;top=0;left=0;bottom=0;right=0;fontStyle=1;overflow=hidden;" vertex="1" parent="YdeQiZSEQgxUe7LMEF5x-29">
          <mxGeometry width="30" height="30" as="geometry" />
        </mxCell>
        <mxCell id="YdeQiZSEQgxUe7LMEF5x-31" value="出库单明细ID" style="shape=partialRectangle;connectable=0;fillColor=none;top=0;left=0;bottom=0;right=0;align=left;spacingLeft=6;fontStyle=5;overflow=hidden;" vertex="1" parent="YdeQiZSEQgxUe7LMEF5x-29">
          <mxGeometry x="30" width="150" height="30" as="geometry" />
        </mxCell>
        <mxCell id="YdeQiZSEQgxUe7LMEF5x-32" value="" style="shape=partialRectangle;collapsible=0;dropTarget=0;pointerEvents=0;fillColor=none;top=0;left=0;bottom=0;right=0;points=[[0,0.5],[1,0.5]];portConstraint=eastwest;" vertex="1" parent="YdeQiZSEQgxUe7LMEF5x-28">
          <mxGeometry y="60" width="180" height="30" as="geometry" />
        </mxCell>
        <mxCell id="YdeQiZSEQgxUe7LMEF5x-33" value="" style="shape=partialRectangle;connectable=0;fillColor=none;top=0;left=0;bottom=0;right=0;editable=1;overflow=hidden;" vertex="1" parent="YdeQiZSEQgxUe7LMEF5x-32">
          <mxGeometry width="30" height="30" as="geometry" />
        </mxCell>
        <mxCell id="YdeQiZSEQgxUe7LMEF5x-34" value="库房出库单ID" style="shape=partialRectangle;connectable=0;fillColor=none;top=0;left=0;bottom=0;right=0;align=left;spacingLeft=6;overflow=hidden;" vertex="1" parent="YdeQiZSEQgxUe7LMEF5x-32">
          <mxGeometry x="30" width="150" height="30" as="geometry" />
        </mxCell>
        <mxCell id="YdeQiZSEQgxUe7LMEF5x-35" value="" style="shape=partialRectangle;collapsible=0;dropTarget=0;pointerEvents=0;fillColor=none;top=0;left=0;bottom=0;right=0;points=[[0,0.5],[1,0.5]];portConstraint=eastwest;" vertex="1" parent="YdeQiZSEQgxUe7LMEF5x-28">
          <mxGeometry y="90" width="180" height="30" as="geometry" />
        </mxCell>
        <mxCell id="YdeQiZSEQgxUe7LMEF5x-36" value="" style="shape=partialRectangle;connectable=0;fillColor=none;top=0;left=0;bottom=0;right=0;editable=1;overflow=hidden;" vertex="1" parent="YdeQiZSEQgxUe7LMEF5x-35">
          <mxGeometry width="30" height="30" as="geometry" />
        </mxCell>
        <mxCell id="YdeQiZSEQgxUe7LMEF5x-37" value="库房库存ID" style="shape=partialRectangle;connectable=0;fillColor=none;top=0;left=0;bottom=0;right=0;align=left;spacingLeft=6;overflow=hidden;" vertex="1" parent="YdeQiZSEQgxUe7LMEF5x-35">
          <mxGeometry x="30" width="150" height="30" as="geometry" />
        </mxCell>
        <mxCell id="YdeQiZSEQgxUe7LMEF5x-38" value="" style="shape=partialRectangle;collapsible=0;dropTarget=0;pointerEvents=0;fillColor=none;top=0;left=0;bottom=0;right=0;points=[[0,0.5],[1,0.5]];portConstraint=eastwest;" vertex="1" parent="YdeQiZSEQgxUe7LMEF5x-28">
          <mxGeometry y="120" width="180" height="30" as="geometry" />
        </mxCell>
        <mxCell id="YdeQiZSEQgxUe7LMEF5x-39" value="" style="shape=partialRectangle;connectable=0;fillColor=none;top=0;left=0;bottom=0;right=0;editable=1;overflow=hidden;" vertex="1" parent="YdeQiZSEQgxUe7LMEF5x-38">
          <mxGeometry width="30" height="30" as="geometry" />
        </mxCell>
        <mxCell id="YdeQiZSEQgxUe7LMEF5x-40" value="Row 3" style="shape=partialRectangle;connectable=0;fillColor=none;top=0;left=0;bottom=0;right=0;align=left;spacingLeft=6;overflow=hidden;" vertex="1" parent="YdeQiZSEQgxUe7LMEF5x-38">
          <mxGeometry x="30" width="150" height="30" as="geometry" />
        </mxCell>
        <mxCell id="YdeQiZSEQgxUe7LMEF5x-41" value="药房入库单" style="shape=table;startSize=30;container=1;collapsible=1;childLayout=tableLayout;fixedRows=1;rowLines=0;fontStyle=1;align=center;resizeLast=1;" vertex="1" parent="1">
          <mxGeometry x="80" y="400" width="180" height="160" as="geometry" />
        </mxCell>
        <mxCell id="YdeQiZSEQgxUe7LMEF5x-42" value="" style="shape=partialRectangle;collapsible=0;dropTarget=0;pointerEvents=0;fillColor=none;top=0;left=0;bottom=1;right=0;points=[[0,0.5],[1,0.5]];portConstraint=eastwest;" vertex="1" parent="YdeQiZSEQgxUe7LMEF5x-41">
          <mxGeometry y="30" width="180" height="30" as="geometry" />
        </mxCell>
        <mxCell id="YdeQiZSEQgxUe7LMEF5x-43" value="PK" style="shape=partialRectangle;connectable=0;fillColor=none;top=0;left=0;bottom=0;right=0;fontStyle=1;overflow=hidden;" vertex="1" parent="YdeQiZSEQgxUe7LMEF5x-42">
          <mxGeometry width="30" height="30" as="geometry" />
        </mxCell>
        <mxCell id="YdeQiZSEQgxUe7LMEF5x-44" value="药房入库单ID" style="shape=partialRectangle;connectable=0;fillColor=none;top=0;left=0;bottom=0;right=0;align=left;spacingLeft=6;fontStyle=5;overflow=hidden;" vertex="1" parent="YdeQiZSEQgxUe7LMEF5x-42">
          <mxGeometry x="30" width="150" height="30" as="geometry" />
        </mxCell>
        <mxCell id="YdeQiZSEQgxUe7LMEF5x-45" value="" style="shape=partialRectangle;collapsible=0;dropTarget=0;pointerEvents=0;fillColor=none;top=0;left=0;bottom=0;right=0;points=[[0,0.5],[1,0.5]];portConstraint=eastwest;" vertex="1" parent="YdeQiZSEQgxUe7LMEF5x-41">
          <mxGeometry y="60" width="180" height="30" as="geometry" />
        </mxCell>
        <mxCell id="YdeQiZSEQgxUe7LMEF5x-46" value="" style="shape=partialRectangle;connectable=0;fillColor=none;top=0;left=0;bottom=0;right=0;editable=1;overflow=hidden;" vertex="1" parent="YdeQiZSEQgxUe7LMEF5x-45">
          <mxGeometry width="30" height="30" as="geometry" />
        </mxCell>
        <mxCell id="YdeQiZSEQgxUe7LMEF5x-47" value="Row 1" style="shape=partialRectangle;connectable=0;fillColor=none;top=0;left=0;bottom=0;right=0;align=left;spacingLeft=6;overflow=hidden;" vertex="1" parent="YdeQiZSEQgxUe7LMEF5x-45">
          <mxGeometry x="30" width="150" height="30" as="geometry" />
        </mxCell>
        <mxCell id="YdeQiZSEQgxUe7LMEF5x-48" value="" style="shape=partialRectangle;collapsible=0;dropTarget=0;pointerEvents=0;fillColor=none;top=0;left=0;bottom=0;right=0;points=[[0,0.5],[1,0.5]];portConstraint=eastwest;" vertex="1" parent="YdeQiZSEQgxUe7LMEF5x-41">
          <mxGeometry y="90" width="180" height="30" as="geometry" />
        </mxCell>
        <mxCell id="YdeQiZSEQgxUe7LMEF5x-49" value="" style="shape=partialRectangle;connectable=0;fillColor=none;top=0;left=0;bottom=0;right=0;editable=1;overflow=hidden;" vertex="1" parent="YdeQiZSEQgxUe7LMEF5x-48">
          <mxGeometry width="30" height="30" as="geometry" />
        </mxCell>
        <mxCell id="YdeQiZSEQgxUe7LMEF5x-50" value="Row 2" style="shape=partialRectangle;connectable=0;fillColor=none;top=0;left=0;bottom=0;right=0;align=left;spacingLeft=6;overflow=hidden;" vertex="1" parent="YdeQiZSEQgxUe7LMEF5x-48">
          <mxGeometry x="30" width="150" height="30" as="geometry" />
        </mxCell>
        <mxCell id="YdeQiZSEQgxUe7LMEF5x-51" value="" style="shape=partialRectangle;collapsible=0;dropTarget=0;pointerEvents=0;fillColor=none;top=0;left=0;bottom=0;right=0;points=[[0,0.5],[1,0.5]];portConstraint=eastwest;" vertex="1" parent="YdeQiZSEQgxUe7LMEF5x-41">
          <mxGeometry y="120" width="180" height="30" as="geometry" />
        </mxCell>
        <mxCell id="YdeQiZSEQgxUe7LMEF5x-52" value="" style="shape=partialRectangle;connectable=0;fillColor=none;top=0;left=0;bottom=0;right=0;editable=1;overflow=hidden;" vertex="1" parent="YdeQiZSEQgxUe7LMEF5x-51">
          <mxGeometry width="30" height="30" as="geometry" />
        </mxCell>
        <mxCell id="YdeQiZSEQgxUe7LMEF5x-53" value="Row 3" style="shape=partialRectangle;connectable=0;fillColor=none;top=0;left=0;bottom=0;right=0;align=left;spacingLeft=6;overflow=hidden;" vertex="1" parent="YdeQiZSEQgxUe7LMEF5x-51">
          <mxGeometry x="30" width="150" height="30" as="geometry" />
        </mxCell>
        <mxCell id="YdeQiZSEQgxUe7LMEF5x-54" value="库房盘点单" style="shape=table;startSize=30;container=1;collapsible=1;childLayout=tableLayout;fixedRows=1;rowLines=0;fontStyle=1;align=center;resizeLast=1;" vertex="1" parent="1">
          <mxGeometry x="400" y="400" width="180" height="160" as="geometry" />
        </mxCell>
        <mxCell id="YdeQiZSEQgxUe7LMEF5x-55" value="" style="shape=partialRectangle;collapsible=0;dropTarget=0;pointerEvents=0;fillColor=none;top=0;left=0;bottom=1;right=0;points=[[0,0.5],[1,0.5]];portConstraint=eastwest;" vertex="1" parent="YdeQiZSEQgxUe7LMEF5x-54">
          <mxGeometry y="30" width="180" height="30" as="geometry" />
        </mxCell>
        <mxCell id="YdeQiZSEQgxUe7LMEF5x-56" value="PK" style="shape=partialRectangle;connectable=0;fillColor=none;top=0;left=0;bottom=0;right=0;fontStyle=1;overflow=hidden;" vertex="1" parent="YdeQiZSEQgxUe7LMEF5x-55">
          <mxGeometry width="30" height="30" as="geometry" />
        </mxCell>
        <mxCell id="YdeQiZSEQgxUe7LMEF5x-57" value="库房盘点单ID" style="shape=partialRectangle;connectable=0;fillColor=none;top=0;left=0;bottom=0;right=0;align=left;spacingLeft=6;fontStyle=5;overflow=hidden;" vertex="1" parent="YdeQiZSEQgxUe7LMEF5x-55">
          <mxGeometry x="30" width="150" height="30" as="geometry" />
        </mxCell>
        <mxCell id="YdeQiZSEQgxUe7LMEF5x-58" value="" style="shape=partialRectangle;collapsible=0;dropTarget=0;pointerEvents=0;fillColor=none;top=0;left=0;bottom=0;right=0;points=[[0,0.5],[1,0.5]];portConstraint=eastwest;" vertex="1" parent="YdeQiZSEQgxUe7LMEF5x-54">
          <mxGeometry y="60" width="180" height="30" as="geometry" />
        </mxCell>
        <mxCell id="YdeQiZSEQgxUe7LMEF5x-59" value="" style="shape=partialRectangle;connectable=0;fillColor=none;top=0;left=0;bottom=0;right=0;editable=1;overflow=hidden;" vertex="1" parent="YdeQiZSEQgxUe7LMEF5x-58">
          <mxGeometry width="30" height="30" as="geometry" />
        </mxCell>
        <mxCell id="YdeQiZSEQgxUe7LMEF5x-60" value="Row 1" style="shape=partialRectangle;connectable=0;fillColor=none;top=0;left=0;bottom=0;right=0;align=left;spacingLeft=6;overflow=hidden;" vertex="1" parent="YdeQiZSEQgxUe7LMEF5x-58">
          <mxGeometry x="30" width="150" height="30" as="geometry" />
        </mxCell>
        <mxCell id="YdeQiZSEQgxUe7LMEF5x-61" value="" style="shape=partialRectangle;collapsible=0;dropTarget=0;pointerEvents=0;fillColor=none;top=0;left=0;bottom=0;right=0;points=[[0,0.5],[1,0.5]];portConstraint=eastwest;" vertex="1" parent="YdeQiZSEQgxUe7LMEF5x-54">
          <mxGeometry y="90" width="180" height="30" as="geometry" />
        </mxCell>
        <mxCell id="YdeQiZSEQgxUe7LMEF5x-62" value="" style="shape=partialRectangle;connectable=0;fillColor=none;top=0;left=0;bottom=0;right=0;editable=1;overflow=hidden;" vertex="1" parent="YdeQiZSEQgxUe7LMEF5x-61">
          <mxGeometry width="30" height="30" as="geometry" />
        </mxCell>
        <mxCell id="YdeQiZSEQgxUe7LMEF5x-63" value="Row 2" style="shape=partialRectangle;connectable=0;fillColor=none;top=0;left=0;bottom=0;right=0;align=left;spacingLeft=6;overflow=hidden;" vertex="1" parent="YdeQiZSEQgxUe7LMEF5x-61">
          <mxGeometry x="30" width="150" height="30" as="geometry" />
        </mxCell>
        <mxCell id="YdeQiZSEQgxUe7LMEF5x-64" value="" style="shape=partialRectangle;collapsible=0;dropTarget=0;pointerEvents=0;fillColor=none;top=0;left=0;bottom=0;right=0;points=[[0,0.5],[1,0.5]];portConstraint=eastwest;" vertex="1" parent="YdeQiZSEQgxUe7LMEF5x-54">
          <mxGeometry y="120" width="180" height="30" as="geometry" />
        </mxCell>
        <mxCell id="YdeQiZSEQgxUe7LMEF5x-65" value="" style="shape=partialRectangle;connectable=0;fillColor=none;top=0;left=0;bottom=0;right=0;editable=1;overflow=hidden;" vertex="1" parent="YdeQiZSEQgxUe7LMEF5x-64">
          <mxGeometry width="30" height="30" as="geometry" />
        </mxCell>
        <mxCell id="YdeQiZSEQgxUe7LMEF5x-66" value="Row 3" style="shape=partialRectangle;connectable=0;fillColor=none;top=0;left=0;bottom=0;right=0;align=left;spacingLeft=6;overflow=hidden;" vertex="1" parent="YdeQiZSEQgxUe7LMEF5x-64">
          <mxGeometry x="30" width="150" height="30" as="geometry" />
        </mxCell>
        <mxCell id="YdeQiZSEQgxUe7LMEF5x-67" value="库房科室借调单" style="shape=table;startSize=30;container=1;collapsible=1;childLayout=tableLayout;fixedRows=1;rowLines=0;fontStyle=1;align=center;resizeLast=1;" vertex="1" parent="1">
          <mxGeometry x="720" y="400" width="180" height="160" as="geometry" />
        </mxCell>
        <mxCell id="YdeQiZSEQgxUe7LMEF5x-68" value="" style="shape=partialRectangle;collapsible=0;dropTarget=0;pointerEvents=0;fillColor=none;top=0;left=0;bottom=1;right=0;points=[[0,0.5],[1,0.5]];portConstraint=eastwest;" vertex="1" parent="YdeQiZSEQgxUe7LMEF5x-67">
          <mxGeometry y="30" width="180" height="30" as="geometry" />
        </mxCell>
        <mxCell id="YdeQiZSEQgxUe7LMEF5x-69" value="PK" style="shape=partialRectangle;connectable=0;fillColor=none;top=0;left=0;bottom=0;right=0;fontStyle=1;overflow=hidden;" vertex="1" parent="YdeQiZSEQgxUe7LMEF5x-68">
          <mxGeometry width="30" height="30" as="geometry" />
        </mxCell>
        <mxCell id="YdeQiZSEQgxUe7LMEF5x-70" value="库房科室借调单ID" style="shape=partialRectangle;connectable=0;fillColor=none;top=0;left=0;bottom=0;right=0;align=left;spacingLeft=6;fontStyle=5;overflow=hidden;" vertex="1" parent="YdeQiZSEQgxUe7LMEF5x-68">
          <mxGeometry x="30" width="150" height="30" as="geometry" />
        </mxCell>
        <mxCell id="YdeQiZSEQgxUe7LMEF5x-71" value="" style="shape=partialRectangle;collapsible=0;dropTarget=0;pointerEvents=0;fillColor=none;top=0;left=0;bottom=0;right=0;points=[[0,0.5],[1,0.5]];portConstraint=eastwest;" vertex="1" parent="YdeQiZSEQgxUe7LMEF5x-67">
          <mxGeometry y="60" width="180" height="30" as="geometry" />
        </mxCell>
        <mxCell id="YdeQiZSEQgxUe7LMEF5x-72" value="" style="shape=partialRectangle;connectable=0;fillColor=none;top=0;left=0;bottom=0;right=0;editable=1;overflow=hidden;" vertex="1" parent="YdeQiZSEQgxUe7LMEF5x-71">
          <mxGeometry width="30" height="30" as="geometry" />
        </mxCell>
        <mxCell id="YdeQiZSEQgxUe7LMEF5x-73" value="Row 1" style="shape=partialRectangle;connectable=0;fillColor=none;top=0;left=0;bottom=0;right=0;align=left;spacingLeft=6;overflow=hidden;" vertex="1" parent="YdeQiZSEQgxUe7LMEF5x-71">
          <mxGeometry x="30" width="150" height="30" as="geometry" />
        </mxCell>
        <mxCell id="YdeQiZSEQgxUe7LMEF5x-74" value="" style="shape=partialRectangle;collapsible=0;dropTarget=0;pointerEvents=0;fillColor=none;top=0;left=0;bottom=0;right=0;points=[[0,0.5],[1,0.5]];portConstraint=eastwest;" vertex="1" parent="YdeQiZSEQgxUe7LMEF5x-67">
          <mxGeometry y="90" width="180" height="30" as="geometry" />
        </mxCell>
        <mxCell id="YdeQiZSEQgxUe7LMEF5x-75" value="" style="shape=partialRectangle;connectable=0;fillColor=none;top=0;left=0;bottom=0;right=0;editable=1;overflow=hidden;" vertex="1" parent="YdeQiZSEQgxUe7LMEF5x-74">
          <mxGeometry width="30" height="30" as="geometry" />
        </mxCell>
        <mxCell id="YdeQiZSEQgxUe7LMEF5x-76" value="Row 2" style="shape=partialRectangle;connectable=0;fillColor=none;top=0;left=0;bottom=0;right=0;align=left;spacingLeft=6;overflow=hidden;" vertex="1" parent="YdeQiZSEQgxUe7LMEF5x-74">
          <mxGeometry x="30" width="150" height="30" as="geometry" />
        </mxCell>
        <mxCell id="YdeQiZSEQgxUe7LMEF5x-77" value="" style="shape=partialRectangle;collapsible=0;dropTarget=0;pointerEvents=0;fillColor=none;top=0;left=0;bottom=0;right=0;points=[[0,0.5],[1,0.5]];portConstraint=eastwest;" vertex="1" parent="YdeQiZSEQgxUe7LMEF5x-67">
          <mxGeometry y="120" width="180" height="30" as="geometry" />
        </mxCell>
        <mxCell id="YdeQiZSEQgxUe7LMEF5x-78" value="" style="shape=partialRectangle;connectable=0;fillColor=none;top=0;left=0;bottom=0;right=0;editable=1;overflow=hidden;" vertex="1" parent="YdeQiZSEQgxUe7LMEF5x-77">
          <mxGeometry width="30" height="30" as="geometry" />
        </mxCell>
        <mxCell id="YdeQiZSEQgxUe7LMEF5x-79" value="Row 3" style="shape=partialRectangle;connectable=0;fillColor=none;top=0;left=0;bottom=0;right=0;align=left;spacingLeft=6;overflow=hidden;" vertex="1" parent="YdeQiZSEQgxUe7LMEF5x-77">
          <mxGeometry x="30" width="150" height="30" as="geometry" />
        </mxCell>
        <mxCell id="YdeQiZSEQgxUe7LMEF5x-80" value="" style="edgeStyle=elbowEdgeStyle;fontSize=12;html=1;endArrow=ERmandOne;exitX=1;exitY=0.5;exitDx=0;exitDy=0;" edge="1" parent="1" source="YdeQiZSEQgxUe7LMEF5x-42">
          <mxGeometry width="100" height="100" relative="1" as="geometry">
            <mxPoint x="300" y="290" as="sourcePoint" />
            <mxPoint x="400" y="190" as="targetPoint" />
          </mxGeometry>
        </mxCell>
        <mxCell id="YdeQiZSEQgxUe7LMEF5x-81" value="" style="edgeStyle=elbowEdgeStyle;fontSize=12;html=1;endArrow=ERmandOne;exitX=0;exitY=0.5;exitDx=0;exitDy=0;" edge="1" parent="1" source="YdeQiZSEQgxUe7LMEF5x-55">
          <mxGeometry width="100" height="100" relative="1" as="geometry">
            <mxPoint x="270" y="485" as="sourcePoint" />
            <mxPoint x="400" y="190" as="targetPoint" />
            <Array as="points">
              <mxPoint x="360" y="320" />
            </Array>
          </mxGeometry>
        </mxCell>
        <mxCell id="YdeQiZSEQgxUe7LMEF5x-82" value="" style="edgeStyle=elbowEdgeStyle;fontSize=12;html=1;endArrow=ERmandOne;exitX=0;exitY=0.5;exitDx=0;exitDy=0;" edge="1" parent="1" source="YdeQiZSEQgxUe7LMEF5x-68">
          <mxGeometry width="100" height="100" relative="1" as="geometry">
            <mxPoint x="410" y="455" as="sourcePoint" />
            <mxPoint x="580" y="190" as="targetPoint" />
            <Array as="points">
              <mxPoint x="680" y="320" />
            </Array>
          </mxGeometry>
        </mxCell>
      </root>
    </mxGraphModel>
  </diagram>
</mxfile>
